<?xml version="1.0" standalone="no"?>
<!DOCTYPE svg PUBLIC "-//W3C//DTD SVG 20010904//EN"
 "http://www.w3.org/TR/2001/REC-SVG-20010904/DTD/svg10.dtd">
<svg version="1.0" xmlns="http://www.w3.org/2000/svg"
 width="436.000000pt" height="436.000000pt" viewBox="0 0 436.000000 436.000000"
 preserveAspectRatio="xMidYMid meet">
<metadata>
Created by potrace 1.11, written by Peter Selinger 2001-2013
</metadata>
<g transform="translate(0.000000,436.000000) scale(0.100000,-0.100000)"
fill="#000000" stroke="none">
<path d="M1295 4221 c-87 -26 -147 -56 -207 -103 -95 -74 -347 -334 -502 -518
-140 -166 -226 -319 -226 -402 0 -27 -1 -28 -16 -14 -18 19 -28 20 -57 5 -45
-25 -121 -118 -226 -279 -59 -89 -62 -97 -56 -140 12 -87 66 -178 171 -285 94
-96 173 -161 515 -421 267 -203 548 -421 559 -434 3 -3 23 -19 45 -35 22 -16
47 -35 55 -42 14 -12 152 -120 221 -175 37 -28 181 -141 378 -296 69 -53 171
-133 227 -177 385 -302 429 -334 579 -426 193 -117 427 -220 672 -294 154 -47
273 -65 403 -60 129 4 212 27 315 86 151 86 217 198 211 358 -4 116 -17 141
-306 576 -274 414 -295 449 -334 580 -14 43 -29 82 -52 132 -11 23 -13 37 -5
51 27 50 -14 126 -74 138 -24 4 -38 16 -53 42 -11 21 -30 55 -42 77 -12 22
-26 45 -30 50 -5 6 -5 17 0 25 14 22 12 67 -5 99 -13 25 -30 36 -88 55 -9 3
-20 14 -24 23 -4 10 -22 43 -40 73 -29 49 -32 60 -27 105 6 45 3 55 -18 80
-13 15 -39 33 -58 39 -27 9 -40 24 -73 86 -38 73 -38 75 -22 103 23 38 12 100
-22 127 -14 11 -31 20 -38 20 -7 0 -17 26 -25 63 -26 133 -62 207 -108 221
-12 4 -28 36 -46 92 -29 89 -53 124 -85 124 -10 0 -56 -17 -102 -39 -117 -54
-179 -80 -279 -121 -48 -20 -65 -22 -140 -16 -262 21 -437 73 -512 153 -58 61
-118 225 -152 418 -17 95 -37 169 -56 212 -36 81 -117 102 -245 64z"/>
</g>
</svg>
