<svg xmlns="http://www.w3.org/2000/svg" viewBox="0 0 436 412">
  <g fill="none" fill-rule="evenodd">
    <path fill="#B5B5B5" fill-rule="nonzero" d="M292.164 98.225l-8.332-25.028c-1.651-3.716-6.039-5.29-9.626-3.384-11.314 5.993-36.284 16.218-45.404 19.38 17.489 6.214 43.124 18.494 55.597 17.177 4.733-.492 9.7-3.79 7.765-8.145zM418 400.595c-4.918 2.769-80.222 20.82-229.5-109.584-45.195-39.485-179.326-159.404-177.588-163.49 0 0-4.055 4.43-7.42 9.057-2.428 3.334-3.932 6.878-3.377 10.434 3.82 24.203 38.355 46.99 85.805 83.437l6.767 5.192 4.474 3.433c7.247 5.562 28.544 22.333 53.354 41.872 33.93 26.713 102.098 79.856 104.083 81.333 26.128 19.367 57.125 34.662 94.494 45.182 47.303 13.301 68.908-6.866 68.908-6.866z"/>
    <path fill="#0F72E4" d="M417.949 400.988s5.876-2.703 11.949-11.331c6.073-8.628 9.732-23.748.554-40.09-9.177-16.33-42.573-63.21-53.524-82.342-5.334-9.32-3.658-17.86-13.858-34.993 0 0-38.976-68.172-47.599-82.984-18.44-31.685-10.348-48.163-22.63-57.618-8.191-6.307-89.999 2.05-114.894-17.144-17.21-13.257-17.468-54.656-24.674-68.209-5.74-10.8-24.884-5.863-38.028 1.358-13.144 7.22-48.941 46.768-57.589 58.037-8.648 11.27-19.722 23.564-20.683 36.141L36 114.38s195.385 187 250.99 224.72c94.816 64.32 130.959 61.889 130.959 61.889z"/>
    <path fill="#073872" d="M299 101c-1.27-3.865-3.072-7.078-6.477-9.7-8.204-6.29-90.134 2.056-115.067-17.098-17.235-13.22-17.494-54.519-24.711-68.023C150.499 1.982 146.182.21 141 0c8.513 17.233 7.661 68.614 28.523 84.616C194.666 103.93 268.417 98.563 299 101z"/>
    <path fill="#FFDD2E" d="M158.447 192.995c6.227-18.181 12.874-60.708.913-85.992C148.15 83.325 104.6 33.45 96.326 24c-15.29 13.649-35.722 37.524-41.888 45.553C46.3 80.15 36.498 92.058 36.016 104.15c-.172 4.348 1.073 6.3 1.073 6.3s121.112 83.262 121.358 82.545z"/>
    <path fill="#DBDBDB" fill-rule="nonzero" d="M279.162 147.896c-4.13 0-8.012-2.493-9.614-6.579-2.083-5.32.53-11.318 5.842-13.416l22.47-8.826c5.3-2.06 11.328.531 13.398 5.863 2.083 5.32-.53 11.319-5.842 13.417l-22.47 8.825a10.44 10.44 0 0 1-3.784.716zm16.603 37.806a10.32 10.32 0 0 1-8.973-5.196c-2.848-4.95-1.147-11.282 3.808-14.133l22.1-12.725c4.955-2.852 11.279-1.136 14.114 3.814 2.847 4.949 1.146 11.28-3.81 14.132l-22.1 12.725a10.241 10.241 0 0 1-5.14 1.383zm22.445 33.967a10.304 10.304 0 0 1-8.295-4.172c-3.414-4.579-2.465-11.059 2.108-14.478l18.66-13.935c4.574-3.419 11.057-2.48 14.459 2.11 3.414 4.592 2.465 11.072-2.108 14.491l-18.661 13.923a10.2 10.2 0 0 1-6.163 2.061zm23.974 31.734a10.27 10.27 0 0 1-7.987-3.79c-3.624-4.418-2.97-10.948 1.43-14.577l14.236-11.7c4.4-3.617 10.933-2.987 14.557 1.431 3.623 4.419 2.97 10.948-1.43 14.577l-14.237 11.701a10.373 10.373 0 0 1-6.57 2.358zM33.792 104.745s8.32 7.554 17.564 8.961 25.625 11.726 36.891 20.403c11.266 8.677 54.221 40.632 80.537 67.194 26.316 26.562 67.73 81.216 83.828 97.052 16.098 15.823 42.068 39.41 64.267 53.654 22.199 14.243 42.586 26.302 55.663 33.152 16.862 8.838 32.442 14.12 45.458 15.565-4.536 2.666-28.51 11.676-70.134-2.53-39.788-13.59-65.721-28.315-87.156-44.262-21.435-15.947-138.148-108.715-157.265-123.44-19.118-14.725-76.272-58.357-85.295-71.428-12.819-18.563-12.202-26.685-9.713-29.919 6.065-7.912 18.871-29.4 25.355-24.402z"/>
    <path fill="#009DF5" d="M430.547 349.092c-9.119-16.375-42.3-63.384-53.181-82.569-2.13-3.762-3.146-7.414-4.247-11.523-1.114.42-2.314.668-3.293 1.35-14.124 9.802-14.051 39.42 6.989 70.389 16.866 24.829 43.94 43.964 59.142 44.261.318-6.659-1.077-14.135-5.41-21.908z"/>
  </g>
</svg>
